<svg xmlns="http://www.w3.org/2000/svg" version="1.1" xmlns:xlink="http://www.w3.org/1999/xlink" xmlns:svgjs="http://svgjs.dev/svgjs" width="1000" height="1000" viewBox="0 0 1000 1000"><rect width="1000" height="1000" fill="#000000"></rect><g transform="matrix(0.7,0,0,0.7,149.5757600374642,410.4831222567234)"><svg viewBox="0 0 396 101" data-background-color="#ffffff" preserveAspectRatio="xMidYMid meet" height="255" width="1000" xmlns="http://www.w3.org/2000/svg" xmlns:xlink="http://www.w3.org/1999/xlink"><g id="tight-bounds" transform="matrix(1,0,0,1,0.23999860737740164,0.151006454178912)"><svg viewBox="0 0 395.52 100.69798709164215" height="100.69798709164215" width="395.52"><g><svg viewBox="0 0 568.2483525404305 144.67401210801776" height="100.69798709164215" width="395.52"><g transform="matrix(1,0,0,1,172.7283525404305,42.627992396952735)"><svg viewBox="0 0 395.52 59.41802731411229" height="59.41802731411229" width="395.52"><g id="textblocktransform"><svg viewBox="0 0 395.52 59.41802731411229" height="59.41802731411229" width="395.52" id="textblock"><g><svg viewBox="0 0 395.52 59.41802731411229" height="59.41802731411229" width="395.52"><g transform="matrix(1,0,0,1,0,0)"><svg width="395.52" viewBox="3.25 -35.5 241.30999755859375 36.2599983215332" height="59.41802731411229" data-palette-color="#0063db"><g class="wordmark-text-0" data-fill-palette-color="primary" id="text-0"><path d="M31.25-35.01L31.25 0 23.75 0 10.25-23.05 10.25 0 3.25 0 3.25-35.01 10.74-35.01 24.24-11.94 24.24-35.01 31.25-35.01ZM65.35-35.01L65.35-13.99Q65.35-11.08 64.26-8.53 63.16-5.98 61.25-4.09 59.35-2.2 56.8-1.1 54.25 0 51.34 0L51.34 0Q48.44 0 45.88-1.1 43.33-2.2 41.44-4.09 39.55-5.98 38.45-8.53 37.35-11.08 37.35-13.99L37.35-13.99 37.35-35.01 44.33-35.01 44.33-13.99Q44.33-12.55 44.88-11.28 45.43-10.01 46.38-9.06 47.34-8.11 48.62-7.56 49.9-7.01 51.34-7.01L51.34-7.01Q52.78-7.01 54.06-7.56 55.34-8.11 56.3-9.06 57.25-10.01 57.8-11.28 58.35-12.55 58.35-13.99L58.35-13.99 58.35-35.01 65.35-35.01ZM69.38-24.51L69.38-24.51Q69.38-26.68 70.21-28.59 71.04-30.49 72.47-31.92 73.9-33.35 75.8-34.18 77.7-35.01 79.88-35.01L79.88-35.01 95.94-35.01 95.94-28 79.88-28Q79.15-28 78.51-27.73 77.88-27.47 77.4-26.99 76.92-26.51 76.66-25.88 76.39-25.24 76.39-24.51L76.39-24.51Q76.39-23.78 76.66-23.13 76.92-22.49 77.4-22.01 77.88-21.53 78.51-21.26 79.15-21 79.88-21L79.88-21 86.88-21Q89.06-21 90.97-20.18 92.89-19.36 94.32-17.93 95.75-16.5 96.56-14.59 97.38-12.67 97.38-10.5L97.38-10.5Q97.38-8.33 96.56-6.42 95.75-4.52 94.32-3.09 92.89-1.66 90.97-0.83 89.06 0 86.88 0L86.88 0 71.33 0 71.33-7.01 86.88-7.01Q87.62-7.01 88.25-7.28 88.89-7.54 89.36-8.02 89.84-8.5 90.11-9.13 90.38-9.77 90.38-10.5L90.38-10.5Q90.38-11.23 90.11-11.87 89.84-12.5 89.36-12.98 88.89-13.45 88.25-13.72 87.62-13.99 86.88-13.99L86.88-13.99 79.88-13.99Q77.7-13.99 75.8-14.82 73.9-15.65 72.47-17.08 71.04-18.51 70.21-20.42 69.38-22.34 69.38-24.51ZM136.27-17.36L136.27-17.36Q136.27-14.87 135.62-12.56 134.98-10.25 133.81-8.24 132.63-6.23 130.97-4.57 129.31-2.91 127.31-1.72 125.31-0.54 122.99 0.11 120.67 0.76 118.18 0.76L118.18 0.76Q115.69 0.76 113.38 0.11 111.08-0.54 109.06-1.72 107.05-2.91 105.39-4.57 103.73-6.23 102.54-8.24 101.36-10.25 100.71-12.56 100.07-14.87 100.07-17.36L100.07-17.36Q100.07-19.85 100.71-22.17 101.36-24.49 102.54-26.49 103.73-28.49 105.39-30.15 107.05-31.81 109.06-32.98 111.08-34.16 113.38-34.8 115.69-35.45 118.18-35.45L118.18-35.45Q120.67-35.45 122.99-34.8 125.31-34.16 127.31-32.98 129.31-31.81 130.97-30.15 132.63-28.49 133.81-26.49 134.98-24.49 135.62-22.17 136.27-19.85 136.27-17.36ZM129.31-17.36L129.31-17.36Q129.31-19.65 128.43-21.69 127.56-23.73 126.05-25.23 124.55-26.73 122.51-27.61 120.48-28.49 118.18-28.49L118.18-28.49Q115.86-28.49 113.84-27.61 111.81-26.73 110.3-25.23 108.78-23.73 107.9-21.69 107.02-19.65 107.02-17.36L107.02-17.36Q107.02-15.06 107.9-13.05 108.78-11.04 110.3-9.52 111.81-8.01 113.84-7.13 115.86-6.25 118.18-6.25L118.18-6.25Q120.48-6.25 122.51-7.13 124.55-8.01 126.05-9.52 127.56-11.04 128.43-13.05 129.31-15.06 129.31-17.36ZM165.1-9.69L168.81-3.59Q166.37-1.49 163.34-0.37 160.32 0.76 157.07 0.76L157.07 0.76Q154.58 0.76 152.27 0.11 149.97-0.54 147.95-1.72 145.94-2.91 144.28-4.57 142.62-6.23 141.43-8.24 140.25-10.25 139.6-12.56 138.95-14.87 138.95-17.36L138.95-17.36Q138.95-19.85 139.6-22.17 140.25-24.49 141.43-26.5 142.62-28.52 144.28-30.18 145.94-31.84 147.95-33.02 149.97-34.2 152.27-34.85 154.58-35.5 157.07-35.5L157.07-35.5Q160.32-35.5 163.34-34.39 166.37-33.28 168.81-31.15L168.81-31.15 165.1-25.05Q163.56-26.71 161.46-27.6 159.37-28.49 157.07-28.49L157.07-28.49Q154.75-28.49 152.72-27.61 150.7-26.73 149.18-25.23 147.67-23.73 146.79-21.69 145.91-19.65 145.91-17.36L145.91-17.36Q145.91-15.06 146.79-13.05 147.67-11.04 149.18-9.52 150.7-8.01 152.72-7.13 154.75-6.25 157.07-6.25L157.07-6.25Q159.37-6.25 161.46-7.14 163.56-8.03 165.1-9.69L165.1-9.69ZM179.87-35.01L179.87 0 172.86 0 172.86-35.01 179.87-35.01ZM192.95-13.99L206.97-13.99 206.97-21Q206.97-22.44 206.42-23.72 205.87-25 204.92-25.95 203.96-26.9 202.68-27.45 201.4-28 199.96-28L199.96-28Q198.52-28 197.24-27.45 195.96-26.9 195-25.95 194.05-25 193.5-23.72 192.95-22.44 192.95-21L192.95-21 192.95-13.99ZM213.97-21L213.97 0 206.97 0 206.97-7.01 192.95-7.01 192.95 0 185.97 0 185.97-21Q185.97-23.9 187.07-26.45 188.17-29 190.06-30.91 191.95-32.81 194.5-33.91 197.06-35.01 199.96-35.01L199.96-35.01Q202.87-35.01 205.42-33.91 207.97-32.81 209.87-30.91 211.78-29 212.88-26.45 213.97-23.9 213.97-21L213.97-21ZM244.56-7.01L244.56 0 220.05 0 220.05-35.01 227.06-35.01 227.06-7.01 244.56-7.01Z" fill="#ffffff" data-fill-palette-color="primary"></path></g></svg></g></svg></g></svg></g></svg></g><g><svg viewBox="0 0 144.67401210801776 144.67401210801776" height="144.67401210801776" width="144.67401210801776"><g><svg></svg></g><g id="icon-0"><svg viewBox="0 0 144.67401210801776 144.67401210801776" height="144.67401210801776" width="144.67401210801776"><g><path d="M0 72.337c0-39.951 32.386-72.337 72.337-72.337 39.951 0 72.337 32.386 72.337 72.337 0 39.951-32.386 72.337-72.337 72.337-39.951 0-72.337-32.386-72.337-72.337zM72.337 139.316c36.991 0 66.979-29.987 66.979-66.979 0-36.991-29.987-66.979-66.979-66.979-36.991 0-66.979 29.987-66.979 66.979 0 36.991 29.987 66.979 66.979 66.979z" data-fill-palette-color="accent" fill="#ffffff" stroke="transparent"></path></g><g transform="matrix(1,0,0,1,30.475713791572993,38.66934249100907)"><svg viewBox="0 0 83.72258452487178 67.33532712599963" height="67.33532712599963" width="83.72258452487178"><g><svg xmlns="http://www.w3.org/2000/svg" xmlns:xlink="http://www.w3.org/1999/xlink" version="1.1" x="0" y="0" viewBox="0 9.78600025177002 100.0003433227539 80.42699432373047" enable-background="new 0 0 100 100" xml:space="preserve" width="83.72258452487178" height="67.33532712599963" class="icon-s-0" data-fill-palette-color="accent" id="s-0"><path d="M49.942 52.994c13.552-0.488 27.103-0.977 40.653-1.465-2.527-4.177-3.159-7.831-7.989-8.461-7.229-0.94-14.458-1.883-21.688-2.826-14.023-1.827-28.05-3.654-42.075-5.48C20.101 36.792 39.724 53.361 49.942 52.994z" fill="#ffffff" data-fill-palette-color="accent"></path><path d="M0 9.786c4.391 7.257 26.615 23.072 32.953 23.886 17.33 2.231 34.657 4.46 51.986 6.688-3.393-5.607-4.18-9.35-10.312-10.959-8.904-2.341-17.812-4.683-26.717-7.023C31.94 18.182 15.97 13.984 0 9.786z" fill="#ffffff" data-fill-palette-color="accent"></path><path d="M63.108 66.207c10.413-2.219 20.826-4.439 31.241-6.66-2.028-3.346-2.034-5.359-5.827-5.189-6.158 0.273-12.314 0.549-18.471 0.822-11.343 0.506-22.686 1.014-34.028 1.518C37.298 58.064 54.94 67.947 63.108 66.207z" fill="#ffffff" data-fill-palette-color="accent"></path><path d="M87.682 90.213c5.725-3.719 7.262-7.721 10.519-13.807 3.651-6.824 1.257-7.844-2.821-14.596-0.417-0.688-5.842 0.232-6.453 0.904-0.745 0.818-0.248 5.455-0.294 6.496C88.315 76.211 87.998 83.213 87.682 90.213z" fill="#ffffff" data-fill-palette-color="accent"></path><path d="M86.35 63.447c-3.795 0.809-8.604 0.191-9.572 4.229-1.373 5.736-2.746 11.475-4.12 17.211C81.904 82.678 86.028 71.582 86.35 63.447z" fill="#ffffff" data-fill-palette-color="accent"></path><path d="M74.666 66.121c-9.148 1.953-8.956 4.611-12.879 13.18C68.007 78.711 73.811 71.941 74.666 66.121z" fill="#ffffff" data-fill-palette-color="accent"></path></svg></g></svg></g></svg></g></svg></g></svg></g><defs></defs></svg><rect width="395.52" height="100.69798709164215" fill="none" stroke="none" visibility="hidden"></rect></g></svg></g></svg>